<svg width="181" height="17" viewBox="0 0 181 17" fill="none" xmlns="http://www.w3.org/2000/svg">
<path d="M14.304 0V15.84H10.176V0H14.304ZM4.128 0V15.84H0V0H4.128ZM12.384 6.264V9.456H2.016V6.264H12.384Z" fill="black"/>
<path d="M25.3736 8.232C25.3736 7.672 25.2136 7.232 24.8936 6.912C24.5896 6.576 24.1736 6.408 23.6456 6.408C23.1176 6.408 22.6616 6.544 22.2776 6.816C21.9096 7.072 21.6536 7.536 21.5096 8.208L18.0536 7.392C18.2776 6.24 18.8696 5.32 19.8296 4.632C20.7896 3.944 22.1416 3.6 23.8856 3.6C25.0536 3.6 26.0456 3.776 26.8616 4.128C27.6936 4.464 28.3256 4.976 28.7576 5.664C29.2056 6.336 29.4296 7.168 29.4296 8.16V12.552C29.4296 13.176 29.7096 13.488 30.2696 13.488C30.5576 13.488 30.7896 13.456 30.9656 13.392L30.7256 15.72C30.2456 15.944 29.6616 16.056 28.9736 16.056C28.3496 16.056 27.7976 15.96 27.3176 15.768C26.8376 15.56 26.4616 15.256 26.1896 14.856C25.9176 14.44 25.7816 13.92 25.7816 13.296V13.152L26.2376 12.984C26.2376 13.672 26.0296 14.248 25.6136 14.712C25.2136 15.176 24.6856 15.52 24.0296 15.744C23.3896 15.968 22.7176 16.08 22.0136 16.08C21.1976 16.08 20.4856 15.952 19.8776 15.696C19.2696 15.44 18.7976 15.072 18.4616 14.592C18.1416 14.096 17.9816 13.488 17.9816 12.768C17.9816 11.904 18.2376 11.192 18.7496 10.632C19.2776 10.056 20.1016 9.656 21.2216 9.432L25.7576 8.496L25.7336 10.656L23.4296 11.136C22.9496 11.232 22.5896 11.376 22.3496 11.568C22.1256 11.744 22.0136 12.016 22.0136 12.384C22.0136 12.736 22.1416 13 22.3976 13.176C22.6536 13.352 22.9576 13.44 23.3096 13.44C23.5816 13.44 23.8376 13.4 24.0776 13.32C24.3336 13.24 24.5576 13.12 24.7496 12.96C24.9416 12.784 25.0936 12.568 25.2056 12.312C25.3176 12.056 25.3736 11.752 25.3736 11.4V8.232Z" fill="black"/>
<path d="M33.7761 15.84V3.84H37.3761L37.5441 6.432C37.8481 5.536 38.2961 4.84 38.8881 4.344C39.4961 3.848 40.2641 3.6 41.1921 3.6C41.4961 3.6 41.7521 3.624 41.9601 3.672C42.1841 3.72 42.3601 3.784 42.4881 3.864L42.0801 7.224C41.9201 7.16 41.7121 7.112 41.4561 7.08C41.2161 7.032 40.9201 7.008 40.5681 7.008C40.0881 7.008 39.6401 7.112 39.2241 7.32C38.8081 7.528 38.4721 7.84 38.2161 8.256C37.9761 8.656 37.8561 9.168 37.8561 9.792V15.84H33.7761Z" fill="black"/>
<path d="M49.9999 0.0239997V11.568C49.9999 12.144 50.1359 12.56 50.4079 12.816C50.6959 13.056 51.0879 13.176 51.5839 13.176C51.9679 13.176 52.2959 13.136 52.5679 13.056C52.8559 12.96 53.1119 12.824 53.3359 12.648L53.7679 15.168C53.3679 15.456 52.8639 15.68 52.2559 15.84C51.6479 16 51.0239 16.08 50.3839 16.08C49.4719 16.08 48.6799 15.952 48.0079 15.696C47.3519 15.44 46.8399 15.032 46.4719 14.472C46.1199 13.912 45.9359 13.168 45.9199 12.24V1.152L49.9999 0.0239997ZM53.5759 3.84V6.744H43.8559V3.84H53.5759Z" fill="black"/>
<path d="M60.7164 16.08C59.9004 16.08 59.1804 15.944 58.5564 15.672C57.9484 15.384 57.4684 14.928 57.1164 14.304C56.7644 13.68 56.5884 12.864 56.5884 11.856V3.84H60.6684V10.896C60.6684 11.664 60.8204 12.2 61.1244 12.504C61.4284 12.808 61.8604 12.96 62.4204 12.96C62.7084 12.96 62.9804 12.912 63.2364 12.816C63.4924 12.704 63.7164 12.544 63.9084 12.336C64.1004 12.112 64.2444 11.832 64.3404 11.496C64.4524 11.144 64.5084 10.736 64.5084 10.272V3.84H68.5884V15.84H64.9404L64.8204 13.584C64.4364 14.432 63.9004 15.064 63.2124 15.48C62.5244 15.88 61.6924 16.08 60.7164 16.08Z" fill="black"/>
<path d="M72.7198 15.84V3.84H76.3198L76.4878 6.432C76.7918 5.536 77.2398 4.84 77.8318 4.344C78.4398 3.848 79.2078 3.6 80.1358 3.6C80.4398 3.6 80.6958 3.624 80.9038 3.672C81.1278 3.72 81.3038 3.784 81.4318 3.864L81.0238 7.224C80.8638 7.16 80.6558 7.112 80.3998 7.08C80.1598 7.032 79.8638 7.008 79.5118 7.008C79.0318 7.008 78.5838 7.112 78.1678 7.32C77.7518 7.528 77.4158 7.84 77.1598 8.256C76.9198 8.656 76.7998 9.168 76.7998 9.792V15.84H72.7198Z" fill="black"/>
<path d="M89.8037 3.6C91.0677 3.6 92.1717 3.848 93.1157 4.344C94.0757 4.824 94.8197 5.536 95.3477 6.48C95.8917 7.408 96.1637 8.528 96.1637 9.84C96.1637 11.152 95.8917 12.28 95.3477 13.224C94.8197 14.152 94.0757 14.864 93.1157 15.36C92.1717 15.84 91.0677 16.08 89.8037 16.08C88.5717 16.08 87.4757 15.84 86.5157 15.36C85.5557 14.864 84.8037 14.152 84.2597 13.224C83.7317 12.28 83.4677 11.152 83.4677 9.84C83.4677 8.528 83.7317 7.408 84.2597 6.48C84.8037 5.536 85.5557 4.824 86.5157 4.344C87.4757 3.848 88.5717 3.6 89.8037 3.6ZM89.8037 6.504C89.3397 6.504 88.9397 6.616 88.6037 6.84C88.2677 7.064 88.0117 7.424 87.8357 7.92C87.6597 8.416 87.5717 9.056 87.5717 9.84C87.5717 10.624 87.6597 11.264 87.8357 11.76C88.0117 12.24 88.2677 12.6 88.6037 12.84C88.9397 13.064 89.3397 13.176 89.8037 13.176C90.2837 13.176 90.6917 13.064 91.0277 12.84C91.3637 12.6 91.6197 12.24 91.7957 11.76C91.9717 11.264 92.0597 10.624 92.0597 9.84C92.0597 9.056 91.9717 8.416 91.7957 7.92C91.6197 7.424 91.3637 7.064 91.0277 6.84C90.6917 6.616 90.2837 6.504 89.8037 6.504Z" fill="black"/>
<path d="M108.014 15.84V0H115.718C117.67 0.0159998 119.11 0.392 120.038 1.128C120.966 1.848 121.43 2.896 121.43 4.272C121.43 5.168 121.166 5.944 120.638 6.6C120.11 7.24 119.302 7.648 118.214 7.824V7.848C119.43 8.008 120.334 8.432 120.926 9.12C121.534 9.792 121.838 10.608 121.838 11.568C121.838 12.928 121.358 13.984 120.398 14.736C119.438 15.472 117.998 15.84 116.078 15.84H108.014ZM111.998 12.936H115.382C116.134 12.936 116.694 12.784 117.062 12.48C117.43 12.176 117.614 11.736 117.614 11.16C117.614 10.6 117.43 10.176 117.062 9.888C116.694 9.584 116.134 9.432 115.382 9.432H111.998V12.936ZM111.998 6.48H114.998C116.47 6.48 117.206 5.904 117.206 4.752C117.206 3.6 116.47 3.024 114.998 3.024H111.998V6.48Z" fill="black"/>
<path d="M131.188 16.08C129.86 16.08 128.708 15.832 127.732 15.336C126.772 14.84 126.028 14.128 125.5 13.2C124.972 12.272 124.708 11.152 124.708 9.84C124.708 8.528 124.972 7.408 125.5 6.48C126.028 5.552 126.764 4.84 127.708 4.344C128.668 3.848 129.764 3.6 130.996 3.6C132.26 3.6 133.332 3.848 134.212 4.344C135.108 4.824 135.788 5.496 136.252 6.36C136.716 7.208 136.948 8.184 136.948 9.288C136.948 9.576 136.94 9.864 136.924 10.152C136.908 10.44 136.884 10.68 136.852 10.872H127.348V8.688H135.052L133.108 9.432C133.108 8.472 132.932 7.736 132.58 7.224C132.244 6.712 131.716 6.456 130.996 6.456C130.484 6.456 130.044 6.576 129.676 6.816C129.324 7.056 129.052 7.432 128.86 7.944C128.684 8.456 128.596 9.112 128.596 9.912C128.596 10.696 128.7 11.336 128.908 11.832C129.116 12.312 129.412 12.664 129.796 12.888C130.18 13.096 130.644 13.2 131.188 13.2C131.796 13.2 132.276 13.08 132.628 12.84C132.996 12.6 133.268 12.264 133.444 11.832L136.708 12.912C136.484 13.6 136.092 14.184 135.532 14.664C134.988 15.128 134.332 15.48 133.564 15.72C132.812 15.96 132.02 16.08 131.188 16.08Z" fill="black"/>
<path d="M145.471 16.08C144.271 16.08 143.151 15.888 142.111 15.504C141.087 15.104 140.239 14.536 139.567 13.8L141.487 11.544C141.887 12.056 142.415 12.488 143.071 12.84C143.743 13.176 144.487 13.344 145.303 13.344C145.799 13.344 146.207 13.272 146.527 13.128C146.847 12.984 147.007 12.76 147.007 12.456C147.007 12.232 146.927 12.056 146.767 11.928C146.607 11.784 146.287 11.664 145.807 11.568L144.127 11.232C142.623 10.928 141.551 10.48 140.911 9.888C140.287 9.28 139.975 8.488 139.975 7.512C139.975 6.856 140.175 6.232 140.575 5.64C140.975 5.032 141.591 4.544 142.423 4.176C143.255 3.792 144.319 3.6 145.615 3.6C146.831 3.6 147.903 3.776 148.831 4.128C149.759 4.48 150.495 4.992 151.039 5.664L149.095 7.872C148.711 7.392 148.215 7.016 147.607 6.744C146.999 6.472 146.391 6.336 145.783 6.336C145.399 6.336 145.071 6.376 144.799 6.456C144.543 6.52 144.351 6.616 144.223 6.744C144.095 6.872 144.031 7.032 144.031 7.224C144.031 7.432 144.127 7.616 144.319 7.776C144.527 7.92 144.903 8.048 145.447 8.16L147.631 8.592C148.863 8.816 149.751 9.224 150.295 9.816C150.839 10.408 151.111 11.12 151.111 11.952C151.111 12.736 150.903 13.44 150.487 14.064C150.071 14.688 149.447 15.184 148.615 15.552C147.783 15.904 146.735 16.08 145.471 16.08Z" fill="black"/>
<path d="M159.468 16.08C158.268 16.08 157.148 15.888 156.108 15.504C155.084 15.104 154.236 14.536 153.564 13.8L155.484 11.544C155.884 12.056 156.412 12.488 157.068 12.84C157.74 13.176 158.484 13.344 159.3 13.344C159.796 13.344 160.204 13.272 160.524 13.128C160.844 12.984 161.004 12.76 161.004 12.456C161.004 12.232 160.924 12.056 160.764 11.928C160.604 11.784 160.284 11.664 159.804 11.568L158.124 11.232C156.62 10.928 155.548 10.48 154.908 9.888C154.284 9.28 153.972 8.488 153.972 7.512C153.972 6.856 154.172 6.232 154.572 5.64C154.972 5.032 155.588 4.544 156.42 4.176C157.252 3.792 158.316 3.6 159.612 3.6C160.828 3.6 161.9 3.776 162.828 4.128C163.756 4.48 164.492 4.992 165.036 5.664L163.092 7.872C162.708 7.392 162.212 7.016 161.604 6.744C160.996 6.472 160.388 6.336 159.78 6.336C159.396 6.336 159.068 6.376 158.796 6.456C158.54 6.52 158.348 6.616 158.22 6.744C158.092 6.872 158.028 7.032 158.028 7.224C158.028 7.432 158.124 7.616 158.316 7.776C158.524 7.92 158.9 8.048 159.444 8.16L161.628 8.592C162.86 8.816 163.748 9.224 164.292 9.816C164.836 10.408 165.108 11.12 165.108 11.952C165.108 12.736 164.9 13.44 164.484 14.064C164.068 14.688 163.444 15.184 162.612 15.552C161.78 15.904 160.732 16.08 159.468 16.08Z" fill="black"/>
<path d="M175.12 8.232C175.12 7.672 174.96 7.232 174.64 6.912C174.336 6.576 173.92 6.408 173.392 6.408C172.864 6.408 172.408 6.544 172.024 6.816C171.656 7.072 171.401 7.536 171.257 8.208L167.8 7.392C168.024 6.24 168.616 5.32 169.576 4.632C170.536 3.944 171.888 3.6 173.632 3.6C174.8 3.6 175.792 3.776 176.608 4.128C177.44 4.464 178.073 4.976 178.505 5.664C178.953 6.336 179.176 7.168 179.176 8.16V12.552C179.176 13.176 179.456 13.488 180.016 13.488C180.304 13.488 180.536 13.456 180.712 13.392L180.472 15.72C179.992 15.944 179.408 16.056 178.72 16.056C178.096 16.056 177.544 15.96 177.064 15.768C176.584 15.56 176.208 15.256 175.936 14.856C175.664 14.44 175.528 13.92 175.528 13.296V13.152L175.984 12.984C175.984 13.672 175.776 14.248 175.36 14.712C174.96 15.176 174.432 15.52 173.776 15.744C173.136 15.968 172.464 16.08 171.76 16.08C170.944 16.08 170.232 15.952 169.624 15.696C169.016 15.44 168.544 15.072 168.208 14.592C167.888 14.096 167.729 13.488 167.729 12.768C167.729 11.904 167.984 11.192 168.496 10.632C169.024 10.056 169.848 9.656 170.968 9.432L175.505 8.496L175.48 10.656L173.176 11.136C172.696 11.232 172.336 11.376 172.096 11.568C171.872 11.744 171.76 12.016 171.76 12.384C171.76 12.736 171.889 13 172.145 13.176C172.401 13.352 172.704 13.44 173.056 13.44C173.328 13.44 173.584 13.4 173.824 13.32C174.08 13.24 174.304 13.12 174.496 12.96C174.688 12.784 174.84 12.568 174.952 12.312C175.064 12.056 175.12 11.752 175.12 11.4V8.232Z" fill="black"/>
</svg>
