<svg width="139" height="39" viewBox="0 0 139 39" fill="none" xmlns="http://www.w3.org/2000/svg">
<path d="M30.238 10.2832C25.8454 10.2832 23.3485 13.0011 22.422 17.442H22.3775C21.8671 13.0011 19.0483 10.2832 14.6557 10.2832C10.4943 10.2832 7.90494 13.1143 6.84324 17.8328H6.79701V10.7273L0 10.7337V38.1478H7.02998V25.0471C7.02998 19.8845 8.97198 17.2776 11.6982 17.2776C14.1027 17.2776 15.4897 19.2206 15.4897 22.4402V38.1499H22.5162V24.8827C22.5162 19.8311 24.4582 17.2776 27.2325 17.2776C29.6369 17.2776 31.024 19.2206 31.024 22.4402V38.1499H38.0505V20.4973C38.0505 14.0601 35.2299 10.2875 30.238 10.2875V10.2832Z" fill="#1E1E1E"/>
<path d="M52.0024 10.2832C44.3158 10.2832 39.3188 15.4749 39.3188 24.2712C39.3188 33.0676 44.3175 38.1499 52.0024 38.1499C59.6871 38.1499 64.6858 33.0129 64.6858 24.2712C64.6858 15.5295 59.6871 10.2832 52.0024 10.2832ZM52.0024 31.8127C48.5127 31.8127 46.485 29.0256 46.485 24.2712C46.485 19.5167 48.5127 16.6204 52.0024 16.6204C55.4919 16.6204 57.5197 19.4621 57.5197 24.2712C57.5197 29.0803 55.4919 31.8127 52.0024 31.8127Z" fill="#1E1E1E"/>
<path d="M130.515 9.81078C124.731 9.81078 119.456 13.5354 118.999 19.6351C118.554 25.573 122.64 26.5986 125.552 27.8942C127.253 28.6499 128.535 29.4595 128.396 31.2949C128.243 33.3462 126.883 34.8036 123.461 34.8036C121.286 34.8036 119.572 34.2098 120.198 32.6444H120.319C121.472 32.6444 122.537 31.5835 122.645 30.2382C122.645 30.2298 122.645 30.2236 122.645 30.2152C122.782 28.38 121.589 27.0305 119.784 27.0305C117.516 27.0305 115.772 28.7038 115.544 31.7267C115.521 32.0236 115.519 32.3122 115.533 32.5905C115.24 32.7877 114.937 32.9142 114.616 32.9142C113.09 32.9142 113.131 31.7807 113.547 29.9454C114.334 26.2789 115.626 20.9307 116.978 15.6032C117.381 14.0149 117.787 12.4309 118.192 10.8924H110.016C110.016 10.8924 107.669 19.4878 107.331 20.5922C107.151 21.1757 106.96 21.7715 106.756 22.3903C104.85 28.0561 102.322 32.7544 100.147 32.7544C98.713 32.7544 99.0617 31.1869 99.5245 29.3516C100.265 26.2934 103.953 12.5139 104.433 10.8945H89.9014V0.150391H82.8695V14.8351H82.8233C81.8053 12.08 79.399 10.4627 75.6972 10.4627C69.0355 10.4627 64.6858 15.8586 64.6858 24.0097C64.6858 32.1607 68.8041 37.9884 75.4213 37.9884C79.5859 37.9884 82.1755 35.6133 83.0547 31.8368H83.1454V37.5587H89.9014V15.9293H95.2976L94.7993 17.831C94.6729 18.3084 94.5448 18.7964 94.4167 19.2947L94.2191 20.0504L94.0483 20.7003C93.3008 23.5799 92.5141 26.6942 91.8288 29.5156C91.6296 30.3233 91.5263 31.081 91.4729 31.7827C91.1935 35.5074 92.7063 38.1504 96.1768 38.1504C101.73 38.1504 104.705 33.0223 106.702 28.5979L106.921 28.76C106.487 30.2174 106.257 31.4029 106.179 32.4846C105.873 36.531 107.927 38.1504 111.12 38.1504C113.054 38.1504 115.037 37.1642 116.607 35.6258C117.883 37.2431 120.244 38.1504 123.525 38.1504C129.91 38.1504 135.634 35.2354 136.173 28.0561C136.558 22.928 133.019 21.3625 130.017 20.067C127.777 19.0954 125.797 18.3396 125.95 16.2884C126.112 14.1292 127.864 12.9957 130.687 12.9957C132.584 12.9957 134.397 13.4814 133.767 15.1009C132.606 15.1009 131.539 16.141 131.373 17.4926C131.361 17.5943 131.35 17.696 131.343 17.7977C131.225 19.3632 132.584 20.3888 134.11 20.3888C136.517 20.3888 138.039 18.6075 138.229 16.0704C138.572 11.4821 134.673 9.8087 130.509 9.8087L130.515 9.81078ZM82.8714 24.4394C82.8714 28.8118 80.5577 31.7247 77.0391 31.7247C73.8017 31.7247 71.6731 28.5959 71.6731 24.0595C71.6731 19.523 73.848 16.7181 77.1317 16.7181C80.4153 16.7181 82.8695 19.3092 82.8695 23.1418V24.4394H82.8714Z" fill="#1E1E1E"/>
</svg>
